/* XPM */
static char *_39f834356654cb584e8e275b38e1353Slldi8pLOgpg8bBm[] = {
/* columns rows colors chars-per-pixel */
"32 32 7 1 ",
"  c black",
". c #1F0C02",
"X c #2B1205",
"o c #064A11",
"O c red",
"+ c #00C11B",
"@ c white",
/* pixels */
"XXXXXX  XXXXXX..XXXXXXXX  XXXX..",
"XXXXXX  XXXXXX..XXXXXXXX  XXXX..",
"XXXX  @@  XXXX..XXXXXX  @@  XX..",
"XXXX  @@  XXXX..XXXXXX  @@  XX..",
"XXXXXX  @@  XX..XXXX  @@  XXXX..",
"XXXXXX  @@  XX..XXXX  @@  XXXX..",
"........  @@  ....  @@  ........",
"........  @@  ....  @@  ........",
"XXXXXX  OO  @@    @@  OO  XXXXXX",
"XXXXXX  OO  @@    @@  OO  XXXXXX",
"XXXX  OO@@OO  @@@@  OO@@OO  XXXX",
"XXXX  OO@@OO  @@@@  OO@@OO  XXXX",
"XXXXXX  OOOOOO    OOOOOO  XXXXXX",
"XXXXXX  OOOOOO    OOOOOO  XXXXXX",
"......  OO@@@@OOOO@@@@OO  ......",
"......  OO@@@@OOOO@@@@OO  ......",
"XXXXXXXX  OOOOOOOOOOOO  XXXXXX..",
"XXXXXXXX  OOOOOOOOOOOO  XXXXXX..",
"XXXXXXXXXX            XXXXXXXX..",
"XXXXXXXXXX            XXXXXXXX..",
"                                ",
"                                ",
"  ++++oooo++++oo++oooooooo++++  ",
"  ++++oooo++++oo++oooooooo++++  ",
"  ++++++++++++++++++++++++++++  ",
"  ++++++++++++++++++++++++++++  ",
"XX                            XX",
"XX                            XX",
"XX  ++++oooo++++++oooo++oo++  XX",
"XX  ++++oooo++++++oooo++oo++  XX",
"..  ++++oooo++++++oooo++oo++  .."
"..  ++++oooo++++++oooo++oo++  .."
};
