/* XPM */
static char *e27944828a6e43b5faae01520289d6c756hAw67VHmxcwk1V[] = {
/* columns rows colors chars-per-pixel */
"32 32 2 1 ",
"  c #1F0C02",
". c #2B1205",
/* pixels */
"..............  ..............  ",
"..............  ..............  ",
"..............  ..............  ",
"..............  ..............  ",
"..............  ..............  ",
"..............  ..............  ",
"                                ",
"                                ",
"......  ..............  ........",
"......  ..............  ........",
"......  ..............  ........",
"......  ..............  ........",
"......  ..............  ........",
"......  ..............  ........",
"                                ",
"                                ",
"..............  ..............  ",
"..............  ..............  ",
"..............  ..............  ",
"..............  ..............  ",
"..............  ..............  ",
"..............  ..............  ",
"                                ",
"                                ",
"......  ..............  ........",
"......  ..............  ........",
"......  ..............  ........",
"......  ..............  ........",
"......  ..............  ........",
"......  ..............  ........",
"                                "
"                                "
};
