/* XPM */
static char *_052aa1d0de54114af589a70656c2808DteHTNQPAdncdB1X[] = {
/* columns rows colors chars-per-pixel */
"32 32 2 1 ",
"  c #130600",
". c #431600",
/* pixels */
"..............  ..............  ",
"..............  ..............  ",
"..............  ..............  ",
"..............  ..............  ",
"..............  ..............  ",
"..............  ..............  ",
"                                ",
"                                ",
"......  ..............  ........",
"......  ..............  ........",
"......  ..............  ........",
"......  ..............  ........",
"......  ..............  ........",
"......  ..............  ........",
"                                ",
"                                ",
"..............  ..............  ",
"..............  ..............  ",
"..............  ..............  ",
"..............  ..............  ",
"..............  ..............  ",
"..............  ..............  ",
"                                ",
"                                ",
"......  ..............  ........",
"......  ..............  ........",
"......  ..............  ........",
"......  ..............  ........",
"......  ..............  ........",
"......  ..............  ........",
"                                "
"                                "
};
